<svg xmlns="http://www.w3.org/2000/svg" xmlns:xlink="http://www.w3.org/1999/xlink" aria-hidden="true" role="img" class="iconify iconify--logos" width="35.93" height="32" preserveAspectRatio="xMidYMid meet" viewBox="0 0 256 228"><path fill="#00D8FF" d="M210.483 73.824a171.49 171.49 0 0 0-8.24-2.597c.465-1.9.893-3.777 1.273-5.621c6.238-30.281 2.16-54.676-11.769-62.708c-13.355-7.7-35.196.329-57.254 19.526a171.23 171.23 0 0 0-6.375 5.848a155.866 155.866 0 0 0-4.241-3.917C100.759 3.829 77.587-4.822 63.673 3.233C49.33 11.558 45.56 35.842 51.995 66.474a170.974 170.974 0 0 0 1.892 8.48c-3.28.932-6.445 1.924-9.474 2.98C17.309 86.698 0 98.307 0 110.027c0 11.721 17.309 23.33 44.413 31.224a145.52 145.52 0 0 0 9.549 2.988a167.467 167.467 0 0 0-1.964 8.723c-6.435 30.632-2.665 54.916 11.678 63.24c13.914 8.055 37.086-.596 60.924-20.469a145.567 145.567 0 0 0 4.319-3.96c1.98 1.82 4.069 3.717 6.266 5.697c22.058 19.197 43.899 27.226 57.254 19.526c13.929-8.032 18.007-32.427 11.769-62.708a145.016 145.016 0 0 0-1.312-5.787c2.708-.816 5.35-1.673 7.9-2.597c27.104-7.894 44.413-19.503 44.413-31.224s-17.309-23.329-44.413-31.203zM128.006 198.134c-38.027 0-68.841-30.814-68.841-68.841s30.814-68.841 68.841-68.841s68.841 30.814 68.841 68.841s-30.814 68.841-68.841 68.841z"></path><path fill="#00D8FF" d="M128.006 82.359c-26.34 0-47.694 21.354-47.694 47.694s21.354 47.694 47.694 47.694s47.694-21.354 47.694-47.694s-21.354-47.694-47.694-47.694zm0 68.841c-11.676 0-21.147-9.471-21.147-21.147s9.471-21.147 21.147-21.147s21.147 9.471 21.147 21.147s-9.471 21.147-21.147 21.147z"></path></svg> 